<svg version="1.1" id="Ebene_1" xmlns="http://www.w3.org/2000/svg" xmlns:xlink="http://www.w3.org/1999/xlink" x="0px" y="0px" viewBox="0 0 31 21" style="enable-background:new 0 0 31 21;" xml:space="preserve">
<style type="text/css">
  .st0{clip-path:url(#SVGID_00000155837940494600828990000000042237581846432388_);}
  .st1{stroke:#000000;stroke-width:0.5;}
  .st2{clip-path:url(#SVGID_00000052813629572094467710000011843377001441586861_);}
  .st3{fill:#000000;stroke:#000000;stroke-width:0.5;}
</style>
<g>
  <defs>
    <rect id="SVGID_00000059296995810176433550000018334855617313201803_" x="0" width="31" height="21"/>
  </defs>
  <clipPath id="SVGID_00000059299480517008380760000018008594509338590892_">
    <use xlink:href="#SVGID_00000059296995810176433550000018334855617313201803_" style="overflow:visible;"/>
  </clipPath>
  <g id="Zeichenfläche_1_00000100358210233584148500000015117029876228157568_" style="clip-path:url(#SVGID_00000059299480517008380760000018008594509338590892_);">
    <g id="Gruppe_4723_00000070102683142399563930000007782505904611689103_" transform="translate(1.377 0.623)">
      <g id="Ebene_1_00000026140915578947234080000018293817421472583856_">
        <path id="Pfad_7985_00000026843041540636558970000009909344329623890350_" class="st3" d="M28,5.7l-4.8-4.8 c-1.2-1.2-3.1-1.2-4.3,0L8,11.6c-0.8,0.8-0.8,2.1,0,2.8c0,0,0,0,0,0l4.8,4.8c0.7,0.7,1.9,0.7,2.6,0l4.8-4.8 c0.8-0.8,0.8-2.1,0-2.9c0,0,0,0,0,0L19,10.4c-0.3-0.3-0.7-0.3-1,0s-0.3,0.7,0,1l0,0l1.1,1.1c0.3,0.3,0.3,0.7,0,0.9c0,0,0,0,0,0 l-4.8,4.8c-0.2,0.2-0.4,0.2-0.6,0c0,0,0,0,0,0L9,13.5c-0.2-0.2-0.2-0.6,0-0.8c0,0,0,0,0,0l5.1-5.1l1.8,1.7c0.3,0.3,0.7,0.3,1,0 s0.3-0.7,0-1l-1.7-1.7l4.8-4.7c0.6-0.6,1.7-0.6,2.3,0L27,6.7c0.3,0.3,0.7,0.3,1,0C28.3,6.4,28.3,6,28,5.7L28,5.7z"/>
        <path id="Pfad_7986_00000057124772002267680780000016719388626907378834_" class="st3" d="M11.6,3.1L9.4,0.9 c-1.3-1.3-3.3-1.3-4.6,0L0.2,5.6c-0.3,0.3-0.3,0.7,0,1c0.3,0.3,0.7,0.3,1,0l4.6-4.6c0.7-0.7,1.9-0.7,2.6,0l2.1,2.1 c0.3,0.3,0.7,0.3,1,0S11.8,3.4,11.6,3.1L11.6,3.1z"/>
      </g>
    </g>
  </g>
</g>
</svg>