<svg width="177" height="24" viewBox="0 0 177 24" fill="none" xmlns="http://www.w3.org/2000/svg">
<path d="M24.6 12C24.6 18.6274 19.1274 24 12.5 24C5.87258 24 0.4 18.6274 0.4 12C0.4 5.37258 5.87258 0 12.5 0C19.1274 0 24.6 5.37258 24.6 12Z" fill="#0F172A"/>
<path d="M12.5 22C18.0228 22 22.5 17.5228 22.5 12C22.5 6.47715 18.0228 2 12.5 2C6.97715 2 2.5 6.47715 2.5 12C2.5 17.5228 6.97715 22 12.5 22Z" fill="#1E293B"/>
<path d="M18.5 8L10.5 16L6.5 12" stroke="#6366F1" stroke-width="2" stroke-linecap="round" stroke-linejoin="round"/>
<path d="M35.5 6H39.5L45 18H41L39.5 14.5H35.5L34 18H30L35.5 6ZM38.5 12L37.5 9.5L36.5 12H38.5Z" fill="white"/>
<path d="M47 6H51V15H56.5V18H47V6Z" fill="white"/>
<path d="M58 6H62V15H67.5V18H58V6Z" fill="white"/>
<path d="M69 6H73V18H69V6Z" fill="white"/>
<path d="M75 6H79V15H84.5V18H75V6Z" fill="white"/>
<path d="M86 6H96V9H90V10.5H95V13.5H90V15H96V18H86V6Z" fill="white"/>
<path d="M98 6H102V10.5L106 6H111L106.5 10.5L111.5 18H106.5L103.5 13L102 14.5V18H98V6Z" fill="white"/>
<path d="M113 6H123V9H117V10.5H122V13.5H117V15H123V18H113V6Z" fill="white"/>
</svg>
